<svg width="16" height="16" viewBox="0 0 16 16" fill="none" xmlns="http://www.w3.org/2000/svg">
<g clip-path="url(#clip0_229_75)">
<path d="M2.69125 4.98892C2.40636 4.3902 2.37099 3.70284 2.59291 3.07803C2.81482 2.45323 3.27585 1.94218 3.87457 1.6573C4.47329 1.37241 5.16066 1.33704 5.78546 1.55896C6.41026 1.78088 6.92132 2.2419 7.2062 2.84062L11.0731 10.9675C11.2441 11.3268 11.2653 11.7392 11.1321 12.1141C10.999 12.489 10.7224 12.7956 10.3631 12.9665C10.0039 13.1374 9.59149 13.1587 9.21661 13.0255C8.84173 12.8924 8.53509 12.6158 8.36416 12.2565L5.35655 5.93559C5.29957 5.81584 5.2925 5.67837 5.33688 5.55341C5.38126 5.42845 5.47347 5.32624 5.59321 5.26926C5.71296 5.21228 5.85043 5.20521 5.97539 5.24959C6.10035 5.29398 6.20256 5.38618 6.25954 5.50593L9.26715 11.8269C9.32413 11.9466 9.42634 12.0388 9.5513 12.0832C9.67626 12.1276 9.81374 12.1205 9.93348 12.0635C10.0532 12.0066 10.1454 11.9043 10.1898 11.7794C10.2342 11.6544 10.2271 11.5169 10.1701 11.3972L6.30321 3.27028C6.21857 3.09241 6.09973 2.93295 5.95347 2.801C5.80721 2.66906 5.63639 2.56721 5.45077 2.50128C5.26514 2.43535 5.06835 2.40663 4.87163 2.41676C4.67491 2.42688 4.48211 2.47565 4.30423 2.56029C4.12636 2.64492 3.9669 2.76376 3.83495 2.91003C3.70301 3.05629 3.60116 3.22711 3.53523 3.41273C3.4693 3.59835 3.44058 3.79514 3.4507 3.99186C3.46083 4.18859 3.5096 4.38139 3.59424 4.55926L7.46117 12.6862C7.74605 13.2849 8.25711 13.7459 8.88191 13.9678C9.50671 14.1898 10.1941 14.1544 10.7928 13.8695C11.3915 13.5846 11.8525 13.0736 12.0745 12.4488C12.2964 11.824 12.261 11.1366 11.9761 10.5379L8.96851 4.21695C8.91153 4.0972 8.90446 3.95973 8.94884 3.83477C8.99323 3.70981 9.08543 3.6076 9.20518 3.55062C9.32492 3.49365 9.46239 3.48657 9.58735 3.53095C9.71231 3.57534 9.81452 3.66754 9.8715 3.78729L12.8791 10.1082C13.278 10.9464 13.3275 11.9087 13.0168 12.7835C12.7061 13.6582 12.0607 14.3737 11.2225 14.7725C10.3843 15.1713 9.42194 15.2209 8.54721 14.9102C7.67249 14.5995 6.95702 13.954 6.55818 13.1158L2.69125 4.98892Z" fill="#344854"/>
</g>
<defs>
<clipPath id="clip0_229_75">
<rect width="16" height="16" fill="white"/>
</clipPath>
</defs>
</svg>
